STARTFONT 2.1
COMMENT
COMMENT Converted from OpenType font "Code.ttf" by "otf2bdf 3.0".
COMMENT
FONT -FreeType-Code-Medium-R-Normal--17-120-100-100-P-66-ISO10646-1
SIZE 12 100 100
FONTBOUNDINGBOX 12 16 -1 -3
STARTPROPERTIES 19
FOUNDRY "FreeType"
FAMILY_NAME "Code"
WEIGHT_NAME "Medium"
SLANT "R"
SETWIDTH_NAME "Normal"
ADD_STYLE_NAME ""
PIXEL_SIZE 17
POINT_SIZE 120
RESOLUTION_X 100
RESOLUTION_Y 100
SPACING "P"
AVERAGE_WIDTH 66
CHARSET_REGISTRY "ISO10646"
CHARSET_ENCODING "1"
FONT_ASCENT 13
FONT_DESCENT 3
COPYRIGHT "Copyright Janos  2011"
_OTF_FONTFILE "Code.ttf"
_OTF_PSNAME "Code"
ENDPROPERTIES
CHARS 128
STARTCHAR 0020
ENCODING 32
SWIDTH 780 0
DWIDTH 13 0
BBX 0 0 0 0
BITMAP
ENDCHAR
STARTCHAR 0021
ENCODING 33
SWIDTH 780 0
DWIDTH 13 0
BBX 4 9 0 0
BITMAP
60
F0
F0
F0
60
60
00
60
60
ENDCHAR
STARTCHAR 0022
ENCODING 34
SWIDTH 780 0
DWIDTH 13 0
BBX 6 4 0 5
BITMAP
CC
CC
CC
48
ENDCHAR
STARTCHAR 0023
ENCODING 35
SWIDTH 780 0
DWIDTH 13 0
BBX 7 9 0 0
BITMAP
6C
6C
FE
6C
6C
6C
FE
6C
6C
ENDCHAR
STARTCHAR 0024
ENCODING 36
SWIDTH 780 0
DWIDTH 13 0
BBX 6 11 0 -1
BITMAP
30
30
7C
C0
C0
78
0C
0C
F8
30
30
ENDCHAR
STARTCHAR 0025
ENCODING 37
SWIDTH 780 0
DWIDTH 13 0
BBX 6 7 0 0
BITMAP
C4
CC
18
30
60
CC
8C
ENDCHAR
STARTCHAR 0026
ENCODING 38
SWIDTH 780 0
DWIDTH 13 0
BBX 7 9 0 0
BITMAP
70
D8
D8
70
FA
DE
CC
DC
76
ENDCHAR
STARTCHAR 0027
ENCODING 39
SWIDTH 780 0
DWIDTH 13 0
BBX 3 4 0 5
BITMAP
60
60
60
C0
ENDCHAR
STARTCHAR 0028
ENCODING 40
SWIDTH 780 0
DWIDTH 13 0
BBX 5 9 0 0
BITMAP
18
30
60
C0
C0
C0
60
30
18
ENDCHAR
STARTCHAR 0029
ENCODING 41
SWIDTH 780 0
DWIDTH 13 0
BBX 5 9 0 0
BITMAP
C0
60
30
18
18
18
30
60
C0
ENDCHAR
STARTCHAR 002A
ENCODING 42
SWIDTH 780 0
DWIDTH 13 0
BBX 8 5 0 2
BITMAP
66
3C
FF
3C
66
ENDCHAR
STARTCHAR 002B
ENCODING 43
SWIDTH 780 0
DWIDTH 13 0
BBX 6 5 0 2
BITMAP
30
30
FC
30
30
ENDCHAR
STARTCHAR 002C
ENCODING 44
SWIDTH 780 0
DWIDTH 13 0
BBX 4 3 0 -1
BITMAP
70
70
C0
ENDCHAR
STARTCHAR 002D
ENCODING 45
SWIDTH 780 0
DWIDTH 13 0
BBX 7 1 0 4
BITMAP
FE
ENDCHAR
STARTCHAR 002E
ENCODING 46
SWIDTH 780 0
DWIDTH 13 0
BBX 3 2 0 0
BITMAP
E0
E0
ENDCHAR
STARTCHAR 002F
ENCODING 47
SWIDTH 780 0
DWIDTH 13 0
BBX 7 8 0 0
BITMAP
02
06
0C
18
30
60
C0
80
ENDCHAR
STARTCHAR 0030
ENCODING 48
SWIDTH 780 0
DWIDTH 13 0
BBX 7 9 0 0
BITMAP
7C
C6
CE
DE
D6
F6
E6
C6
7C
ENDCHAR
STARTCHAR 0031
ENCODING 49
SWIDTH 780 0
DWIDTH 13 0
BBX 6 9 0 0
BITMAP
30
70
F0
30
30
30
30
30
FC
ENDCHAR
STARTCHAR 0032
ENCODING 50
SWIDTH 780 0
DWIDTH 13 0
BBX 6 9 0 0
BITMAP
78
CC
CC
0C
18
30
60
C4
FC
ENDCHAR
STARTCHAR 0033
ENCODING 51
SWIDTH 780 0
DWIDTH 13 0
BBX 6 9 0 0
BITMAP
78
CC
CC
0C
38
0C
CC
CC
78
ENDCHAR
STARTCHAR 0034
ENCODING 52
SWIDTH 780 0
DWIDTH 13 0
BBX 7 9 0 0
BITMAP
0C
1C
3C
6C
CC
FE
0C
0C
1E
ENDCHAR
STARTCHAR 0035
ENCODING 53
SWIDTH 780 0
DWIDTH 13 0
BBX 6 9 0 0
BITMAP
FC
C0
C0
C0
F8
0C
0C
CC
78
ENDCHAR
STARTCHAR 0036
ENCODING 54
SWIDTH 780 0
DWIDTH 13 0
BBX 6 9 0 0
BITMAP
38
60
C0
C0
F8
CC
CC
CC
78
ENDCHAR
STARTCHAR 0037
ENCODING 55
SWIDTH 780 0
DWIDTH 13 0
BBX 7 9 0 0
BITMAP
FE
C6
C6
0C
18
30
30
30
30
ENDCHAR
STARTCHAR 0038
ENCODING 56
SWIDTH 780 0
DWIDTH 13 0
BBX 6 9 0 0
BITMAP
78
CC
CC
EC
78
DC
CC
CC
78
ENDCHAR
STARTCHAR 0039
ENCODING 57
SWIDTH 780 0
DWIDTH 13 0
BBX 6 9 0 0
BITMAP
78
CC
CC
CC
7C
18
18
30
70
ENDCHAR
STARTCHAR 003A
ENCODING 58
SWIDTH 780 0
DWIDTH 13 0
BBX 3 6 0 1
BITMAP
E0
E0
00
00
E0
E0
ENDCHAR
STARTCHAR 003B
ENCODING 59
SWIDTH 780 0
DWIDTH 13 0
BBX 3 8 0 -1
BITMAP
E0
E0
00
00
E0
E0
60
C0
ENDCHAR
STARTCHAR 003C
ENCODING 60
SWIDTH 780 0
DWIDTH 13 0
BBX 6 9 0 0
BITMAP
0C
18
30
60
C0
60
30
18
0C
ENDCHAR
STARTCHAR 003D
ENCODING 61
SWIDTH 780 0
DWIDTH 13 0
BBX 6 3 0 3
BITMAP
FC
00
FC
ENDCHAR
STARTCHAR 003E
ENCODING 62
SWIDTH 780 0
DWIDTH 13 0
BBX 6 9 0 0
BITMAP
C0
60
30
18
0C
18
30
60
C0
ENDCHAR
STARTCHAR 003F
ENCODING 63
SWIDTH 780 0
DWIDTH 13 0
BBX 6 9 0 0
BITMAP
78
CC
0C
18
30
30
00
30
30
ENDCHAR
STARTCHAR 0040
ENCODING 64
SWIDTH 780 0
DWIDTH 13 0
BBX 7 9 0 0
BITMAP
7C
C6
C6
DE
DE
DE
C0
C0
7C
ENDCHAR
STARTCHAR 0041
ENCODING 65
SWIDTH 780 0
DWIDTH 13 0
BBX 6 9 0 0
BITMAP
30
78
CC
CC
CC
FC
CC
CC
CC
ENDCHAR
STARTCHAR 0042
ENCODING 66
SWIDTH 780 0
DWIDTH 13 0
BBX 7 9 0 0
BITMAP
FC
66
66
66
7C
66
66
66
FC
ENDCHAR
STARTCHAR 0043
ENCODING 67
SWIDTH 780 0
DWIDTH 13 0
BBX 7 9 0 0
BITMAP
3C
66
C6
C0
C0
C0
C6
66
3C
ENDCHAR
STARTCHAR 0044
ENCODING 68
SWIDTH 780 0
DWIDTH 13 0
BBX 7 9 0 0
BITMAP
F8
6C
66
66
66
66
66
6C
F8
ENDCHAR
STARTCHAR 0045
ENCODING 69
SWIDTH 780 0
DWIDTH 13 0
BBX 7 9 0 0
BITMAP
FE
62
60
64
7C
64
60
62
FE
ENDCHAR
STARTCHAR 0046
ENCODING 70
SWIDTH 780 0
DWIDTH 13 0
BBX 7 9 0 0
BITMAP
FE
62
60
64
7C
64
60
60
F0
ENDCHAR
STARTCHAR 0047
ENCODING 71
SWIDTH 780 0
DWIDTH 13 0
BBX 7 9 0 0
BITMAP
3C
66
C6
C0
C0
CE
C6
66
3E
ENDCHAR
STARTCHAR 0048
ENCODING 72
SWIDTH 780 0
DWIDTH 13 0
BBX 6 9 0 0
BITMAP
CC
CC
CC
CC
FC
CC
CC
CC
CC
ENDCHAR
STARTCHAR 0049
ENCODING 73
SWIDTH 780 0
DWIDTH 13 0
BBX 4 9 0 0
BITMAP
F0
60
60
60
60
60
60
60
F0
ENDCHAR
STARTCHAR 004A
ENCODING 74
SWIDTH 780 0
DWIDTH 13 0
BBX 7 9 0 0
BITMAP
1E
0C
0C
0C
0C
CC
CC
CC
78
ENDCHAR
STARTCHAR 004B
ENCODING 75
SWIDTH 780 0
DWIDTH 13 0
BBX 6 9 0 0
BITMAP
CC
CC
D8
D8
F0
D8
D8
CC
CC
ENDCHAR
STARTCHAR 004C
ENCODING 76
SWIDTH 780 0
DWIDTH 13 0
BBX 7 9 0 0
BITMAP
F0
60
60
60
60
62
66
66
FE
ENDCHAR
STARTCHAR 004D
ENCODING 77
SWIDTH 780 0
DWIDTH 13 0
BBX 7 9 0 0
BITMAP
C6
EE
FE
FE
D6
C6
C6
C6
C6
ENDCHAR
STARTCHAR 004E
ENCODING 78
SWIDTH 780 0
DWIDTH 13 0
BBX 7 9 0 0
BITMAP
C6
C6
E6
F6
FE
DE
CE
C6
C6
ENDCHAR
STARTCHAR 004F
ENCODING 79
SWIDTH 780 0
DWIDTH 13 0
BBX 7 9 0 0
BITMAP
38
6C
C6
C6
C6
C6
C6
6C
38
ENDCHAR
STARTCHAR 0050
ENCODING 80
SWIDTH 780 0
DWIDTH 13 0
BBX 7 9 0 0
BITMAP
FC
66
66
66
7C
60
60
60
F0
ENDCHAR
STARTCHAR 0051
ENCODING 81
SWIDTH 780 0
DWIDTH 13 0
BBX 7 10 0 -1
BITMAP
38
6C
C6
C6
C6
CE
5C
3C
0C
1E
ENDCHAR
STARTCHAR 0052
ENCODING 82
SWIDTH 780 0
DWIDTH 13 0
BBX 7 9 0 0
BITMAP
FC
66
66
66
7C
6C
66
66
F6
ENDCHAR
STARTCHAR 0053
ENCODING 83
SWIDTH 780 0
DWIDTH 13 0
BBX 6 9 0 0
BITMAP
78
CC
CC
C0
70
18
CC
CC
78
ENDCHAR
STARTCHAR 0054
ENCODING 84
SWIDTH 780 0
DWIDTH 13 0
BBX 6 9 0 0
BITMAP
FC
B4
30
30
30
30
30
30
78
ENDCHAR
STARTCHAR 0055
ENCODING 85
SWIDTH 780 0
DWIDTH 13 0
BBX 6 9 0 0
BITMAP
CC
CC
CC
CC
CC
CC
CC
CC
78
ENDCHAR
STARTCHAR 0056
ENCODING 86
SWIDTH 780 0
DWIDTH 13 0
BBX 6 9 0 0
BITMAP
CC
CC
CC
CC
CC
CC
CC
78
30
ENDCHAR
STARTCHAR 0057
ENCODING 87
SWIDTH 780 0
DWIDTH 13 0
BBX 7 9 0 0
BITMAP
C6
C6
C6
C6
D6
D6
6C
6C
6C
ENDCHAR
STARTCHAR 0058
ENCODING 88
SWIDTH 780 0
DWIDTH 13 0
BBX 6 9 0 0
BITMAP
CC
CC
CC
78
30
78
CC
CC
CC
ENDCHAR
STARTCHAR 0059
ENCODING 89
SWIDTH 780 0
DWIDTH 13 0
BBX 6 9 0 0
BITMAP
CC
CC
CC
CC
78
30
30
30
78
ENDCHAR
STARTCHAR 005A
ENCODING 90
SWIDTH 780 0
DWIDTH 13 0
BBX 7 9 0 0
BITMAP
FE
CE
98
18
30
60
62
C6
FE
ENDCHAR
STARTCHAR 005B
ENCODING 91
SWIDTH 780 0
DWIDTH 13 0
BBX 3 9 0 0
BITMAP
E0
C0
C0
C0
C0
C0
C0
C0
E0
ENDCHAR
STARTCHAR 005C
ENCODING 92
SWIDTH 780 0
DWIDTH 13 0
BBX 7 8 0 0
BITMAP
80
C0
60
30
18
0C
06
02
ENDCHAR
STARTCHAR 005D
ENCODING 93
SWIDTH 780 0
DWIDTH 13 0
BBX 3 9 0 0
BITMAP
E0
60
60
60
60
60
60
60
E0
ENDCHAR
STARTCHAR 005E
ENCODING 94
SWIDTH 780 0
DWIDTH 13 0
BBX 7 4 0 6
BITMAP
10
38
6C
C6
ENDCHAR
STARTCHAR 005F
ENCODING 95
SWIDTH 780 0
DWIDTH 13 0
BBX 8 1 0 -1
BITMAP
FF
ENDCHAR
STARTCHAR 0060
ENCODING 96
SWIDTH 780 0
DWIDTH 13 0
BBX 3 3 0 7
BITMAP
C0
C0
60
ENDCHAR
STARTCHAR 0061
ENCODING 97
SWIDTH 780 0
DWIDTH 13 0
BBX 7 6 0 0
BITMAP
78
0C
7C
CC
CC
76
ENDCHAR
STARTCHAR 0062
ENCODING 98
SWIDTH 780 0
DWIDTH 13 0
BBX 7 9 0 0
BITMAP
E0
60
60
7C
66
66
66
66
DC
ENDCHAR
STARTCHAR 0063
ENCODING 99
SWIDTH 780 0
DWIDTH 13 0
BBX 6 6 0 0
BITMAP
78
CC
C0
C0
CC
78
ENDCHAR
STARTCHAR 0064
ENCODING 100
SWIDTH 780 0
DWIDTH 13 0
BBX 7 9 0 0
BITMAP
1C
0C
0C
7C
CC
CC
CC
CC
76
ENDCHAR
STARTCHAR 0065
ENCODING 101
SWIDTH 780 0
DWIDTH 13 0
BBX 6 6 0 0
BITMAP
78
CC
FC
C0
CC
78
ENDCHAR
STARTCHAR 0066
ENCODING 102
SWIDTH 780 0
DWIDTH 13 0
BBX 6 9 0 0
BITMAP
38
6C
6C
60
F8
60
60
60
F0
ENDCHAR
STARTCHAR 0067
ENCODING 103
SWIDTH 780 0
DWIDTH 13 0
BBX 7 9 0 -3
BITMAP
76
CC
CC
CC
CC
7C
0C
CC
78
ENDCHAR
STARTCHAR 0068
ENCODING 104
SWIDTH 780 0
DWIDTH 13 0
BBX 7 9 0 0
BITMAP
E0
60
60
7C
66
66
66
66
E6
ENDCHAR
STARTCHAR 0069
ENCODING 105
SWIDTH 780 0
DWIDTH 13 0
BBX 6 9 0 0
BITMAP
30
30
00
F0
30
30
30
30
FC
ENDCHAR
STARTCHAR 006A
ENCODING 106
SWIDTH 780 0
DWIDTH 13 0
BBX 6 11 0 -2
BITMAP
0C
0C
00
3C
0C
0C
0C
0C
CC
CC
78
ENDCHAR
STARTCHAR 006B
ENCODING 107
SWIDTH 780 0
DWIDTH 13 0
BBX 7 9 0 0
BITMAP
E0
60
60
66
6C
78
6C
66
E6
ENDCHAR
STARTCHAR 006C
ENCODING 108
SWIDTH 780 0
DWIDTH 13 0
BBX 6 9 0 0
BITMAP
F0
30
30
30
30
30
30
30
FC
ENDCHAR
STARTCHAR 006D
ENCODING 109
SWIDTH 780 0
DWIDTH 13 0
BBX 7 6 0 0
BITMAP
FC
D6
D6
D6
D6
C6
ENDCHAR
STARTCHAR 006E
ENCODING 110
SWIDTH 780 0
DWIDTH 13 0
BBX 6 6 0 0
BITMAP
F8
CC
CC
CC
CC
CC
ENDCHAR
STARTCHAR 006F
ENCODING 111
SWIDTH 780 0
DWIDTH 13 0
BBX 6 6 0 0
BITMAP
78
CC
CC
CC
CC
78
ENDCHAR
STARTCHAR 0070
ENCODING 112
SWIDTH 780 0
DWIDTH 13 0
BBX 7 8 0 -2
BITMAP
DC
66
66
66
66
7C
60
F0
ENDCHAR
STARTCHAR 0071
ENCODING 113
SWIDTH 780 0
DWIDTH 13 0
BBX 7 8 0 -2
BITMAP
76
CC
CC
CC
CC
7C
0C
1E
ENDCHAR
STARTCHAR 0072
ENCODING 114
SWIDTH 780 0
DWIDTH 13 0
BBX 7 6 0 0
BITMAP
CC
6E
76
60
60
F0
ENDCHAR
STARTCHAR 0073
ENCODING 115
SWIDTH 780 0
DWIDTH 13 0
BBX 6 6 0 0
BITMAP
78
CC
60
18
CC
78
ENDCHAR
STARTCHAR 0074
ENCODING 116
SWIDTH 780 0
DWIDTH 13 0
BBX 7 9 0 0
BITMAP
30
70
FE
30
30
30
36
36
1C
ENDCHAR
STARTCHAR 0075
ENCODING 117
SWIDTH 780 0
DWIDTH 13 0
BBX 7 6 0 0
BITMAP
CC
CC
CC
CC
CC
76
ENDCHAR
STARTCHAR 0076
ENCODING 118
SWIDTH 780 0
DWIDTH 13 0
BBX 6 6 0 0
BITMAP
CC
CC
CC
CC
78
30
ENDCHAR
STARTCHAR 0077
ENCODING 119
SWIDTH 780 0
DWIDTH 13 0
BBX 7 6 0 0
BITMAP
C6
C6
D6
D6
6C
6C
ENDCHAR
STARTCHAR 0078
ENCODING 120
SWIDTH 780 0
DWIDTH 13 0
BBX 7 6 0 0
BITMAP
C6
6C
38
38
6C
C6
ENDCHAR
STARTCHAR 0079
ENCODING 121
SWIDTH 780 0
DWIDTH 13 0
BBX 6 8 0 -2
BITMAP
CC
CC
CC
CC
7C
0C
18
F0
ENDCHAR
STARTCHAR 007A
ENCODING 122
SWIDTH 780 0
DWIDTH 13 0
BBX 5 6 0 0
BITMAP
F8
98
30
60
C8
F8
ENDCHAR
STARTCHAR 007B
ENCODING 123
SWIDTH 780 0
DWIDTH 13 0
BBX 6 9 0 0
BITMAP
1C
30
30
60
C0
60
30
30
1C
ENDCHAR
STARTCHAR 007C
ENCODING 124
SWIDTH 780 0
DWIDTH 13 0
BBX 2 9 0 0
BITMAP
C0
C0
C0
C0
00
C0
C0
C0
C0
ENDCHAR
STARTCHAR 007D
ENCODING 125
SWIDTH 780 0
DWIDTH 13 0
BBX 6 9 0 0
BITMAP
E0
30
30
18
0C
18
30
30
E0
ENDCHAR
STARTCHAR 007E
ENCODING 126
SWIDTH 780 0
DWIDTH 13 0
BBX 8 3 0 6
BITMAP
73
DA
CE
ENDCHAR
STARTCHAR 00A4
ENCODING 164
SWIDTH 780 0
DWIDTH 13 0
BBX 8 8 0 0
BITMAP
18
DB
7E
E7
E7
7E
DB
18
ENDCHAR
STARTCHAR 00A7
ENCODING 167
SWIDTH 780 0
DWIDTH 13 0
BBX 8 10 0 0
BITMAP
7E
63
30
3C
66
66
3C
0C
C6
7E
ENDCHAR
STARTCHAR 00B1
ENCODING 177
SWIDTH 780 0
DWIDTH 13 0
BBX 6 7 0 2
BITMAP
30
30
FC
30
30
00
FC
ENDCHAR
STARTCHAR 00C0
ENCODING 192
SWIDTH 780 0
DWIDTH 13 0
BBX 6 13 0 0
BITMAP
C0
60
30
00
30
78
CC
CC
CC
FC
CC
CC
CC
ENDCHAR
STARTCHAR 00C1
ENCODING 193
SWIDTH 780 0
DWIDTH 13 0
BBX 6 13 0 0
BITMAP
0C
18
30
00
30
78
CC
CC
CC
FC
CC
CC
CC
ENDCHAR
STARTCHAR 00C6
ENCODING 198
SWIDTH 780 0
DWIDTH 13 0
BBX 10 9 0 0
BITMAP
1FC0
3C40
6C00
CC80
CF80
FC80
CC00
CC40
CFC0
ENDCHAR
STARTCHAR 00C8
ENCODING 200
SWIDTH 780 0
DWIDTH 13 0
BBX 7 13 0 0
BITMAP
60
30
18
00
FE
62
60
64
7C
64
60
62
FE
ENDCHAR
STARTCHAR 00C9
ENCODING 201
SWIDTH 780 0
DWIDTH 13 0
BBX 7 13 0 0
BITMAP
0C
18
30
00
FE
62
60
64
7C
64
60
62
FE
ENDCHAR
STARTCHAR 00CC
ENCODING 204
SWIDTH 780 0
DWIDTH 13 0
BBX 5 13 0 0
BITMAP
18
30
60
00
F0
60
60
60
60
60
60
60
F0
ENDCHAR
STARTCHAR 00CD
ENCODING 205
SWIDTH 780 0
DWIDTH 13 0
BBX 5 13 -1 0
BITMAP
C0
60
30
00
78
30
30
30
30
30
30
30
78
ENDCHAR
STARTCHAR 00D2
ENCODING 210
SWIDTH 780 0
DWIDTH 13 0
BBX 7 13 0 0
BITMAP
60
30
18
00
38
6C
C6
C6
C6
C6
C6
6C
38
ENDCHAR
STARTCHAR 00D3
ENCODING 211
SWIDTH 780 0
DWIDTH 13 0
BBX 7 13 0 0
BITMAP
0C
18
30
00
38
6C
C6
C6
C6
C6
C6
6C
38
ENDCHAR
STARTCHAR 00D7
ENCODING 215
SWIDTH 780 0
DWIDTH 13 0
BBX 7 6 0 2
BITMAP
C6
6C
38
38
6C
C6
ENDCHAR
STARTCHAR 00D9
ENCODING 217
SWIDTH 780 0
DWIDTH 13 0
BBX 6 13 0 0
BITMAP
C0
60
30
00
CC
CC
CC
CC
CC
CC
CC
CC
78
ENDCHAR
STARTCHAR 00DA
ENCODING 218
SWIDTH 780 0
DWIDTH 13 0
BBX 6 13 0 0
BITMAP
0C
18
30
00
CC
CC
CC
CC
CC
CC
CC
CC
78
ENDCHAR
STARTCHAR 00DC
ENCODING 220
SWIDTH 780 0
DWIDTH 13 0
BBX 6 12 0 0
BITMAP
CC
CC
00
CC
CC
CC
CC
CC
CC
CC
CC
78
ENDCHAR
STARTCHAR 00DD
ENCODING 221
SWIDTH 780 0
DWIDTH 13 0
BBX 6 13 0 0
BITMAP
0C
18
30
00
CC
CC
CC
CC
78
30
30
30
78
ENDCHAR
STARTCHAR 00E0
ENCODING 224
SWIDTH 780 0
DWIDTH 13 0
BBX 7 10 0 0
BITMAP
C0
60
30
00
78
0C
7C
CC
CC
76
ENDCHAR
STARTCHAR 00E1
ENCODING 225
SWIDTH 780 0
DWIDTH 13 0
BBX 7 10 0 0
BITMAP
0C
18
30
00
78
0C
7C
CC
CC
76
ENDCHAR
STARTCHAR 00E8
ENCODING 232
SWIDTH 780 0
DWIDTH 13 0
BBX 6 10 0 0
BITMAP
C0
60
30
00
78
CC
FC
C0
CC
78
ENDCHAR
STARTCHAR 00E9
ENCODING 233
SWIDTH 780 0
DWIDTH 13 0
BBX 6 10 0 0
BITMAP
0C
18
30
00
78
CC
FC
C0
CC
78
ENDCHAR
STARTCHAR 00EC
ENCODING 236
SWIDTH 780 0
DWIDTH 13 0
BBX 6 10 0 0
BITMAP
C0
60
30
00
F0
30
30
30
30
FC
ENDCHAR
STARTCHAR 00ED
ENCODING 237
SWIDTH 780 0
DWIDTH 13 0
BBX 6 10 0 0
BITMAP
0C
18
30
00
F0
30
30
30
30
FC
ENDCHAR
STARTCHAR 00F2
ENCODING 242
SWIDTH 780 0
DWIDTH 13 0
BBX 6 10 0 0
BITMAP
C0
60
30
00
78
CC
CC
CC
CC
78
ENDCHAR
STARTCHAR 00F3
ENCODING 243
SWIDTH 780 0
DWIDTH 13 0
BBX 6 10 0 0
BITMAP
0C
18
30
00
78
CC
CC
CC
CC
78
ENDCHAR
STARTCHAR 00F7
ENCODING 247
SWIDTH 780 0
DWIDTH 13 0
BBX 6 7 0 1
BITMAP
30
30
00
FC
00
30
30
ENDCHAR
STARTCHAR 00F9
ENCODING 249
SWIDTH 780 0
DWIDTH 13 0
BBX 7 10 0 0
BITMAP
C0
60
30
00
CC
CC
CC
CC
CC
76
ENDCHAR
STARTCHAR 00FA
ENCODING 250
SWIDTH 780 0
DWIDTH 13 0
BBX 7 10 0 0
BITMAP
0C
18
30
00
CC
CC
CC
CC
CC
76
ENDCHAR
STARTCHAR 2018
ENCODING 8216
SWIDTH 780 0
DWIDTH 13 0
BBX 2 4 0 5
BITMAP
80
C0
C0
C0
ENDCHAR
STARTCHAR 2019
ENCODING 8217
SWIDTH 780 0
DWIDTH 13 0
BBX 2 4 0 5
BITMAP
C0
C0
C0
40
ENDCHAR
STARTCHAR 201C
ENCODING 8220
SWIDTH 780 0
DWIDTH 13 0
BBX 6 4 0 5
BITMAP
88
CC
CC
CC
ENDCHAR
STARTCHAR 201D
ENCODING 8221
SWIDTH 780 0
DWIDTH 13 0
BBX 6 4 0 5
BITMAP
CC
CC
CC
44
ENDCHAR
STARTCHAR 2026
ENCODING 8230
SWIDTH 780 0
DWIDTH 13 0
BBX 11 2 0 0
BITMAP
EEE0
EEE0
ENDCHAR
ENDFONT
